<svg id="Icons" height="512" viewBox="0 0 74 74" width="512" xmlns="http://www.w3.org/2000/svg"><path d="m63 72h-52a1 1 0 0 1 -1-1v-68a1 1 0 0 1 1-1h52a1 1 0 0 1 1 1v68a1 1 0 0 1 -1 1zm-51-2h50v-66h-50z"/><path d="m43.965 15.778h-24.645a1 1 0 0 1 0-2h24.645a1 1 0 0 1 0 2z"/><path d="m54.68 15.778h-3.215a1 1 0 0 1 0-2h3.215a1 1 0 0 1 0 2z"/><path d="m43.965 26.889h-24.645a1 1 0 0 1 0-2h24.645a1 1 0 0 1 0 2z"/><path d="m54.68 26.889h-3.215a1 1 0 0 1 0-2h3.215a1 1 0 0 1 0 2z"/><path d="m43.965 38h-24.645a1 1 0 0 1 0-2h24.645a1 1 0 0 1 0 2z"/><path d="m54.68 38h-3.215a1 1 0 0 1 0-2h3.215a1 1 0 1 1 0 2z"/><path d="m43.965 49.111h-24.645a1 1 0 0 1 0-2h24.645a1 1 0 0 1 0 2z"/><path d="m54.68 49.111h-3.215a1 1 0 0 1 0-2h3.215a1 1 0 0 1 0 2z"/><path d="m43.965 60.222h-24.645a1 1 0 0 1 0-2h24.645a1 1 0 0 1 0 2z"/><path d="m54.68 60.222h-3.215a1 1 0 0 1 0-2h3.215a1 1 0 0 1 0 2z"/></svg>